<svg xmlns="http://www.w3.org/2000/svg" width="64.552" height="54.164" viewBox="0 0 64.552 54.164">
  <g id="Group_5" data-name="Group 5" transform="translate(-298 -17.707)">
    <path id="Path_20" data-name="Path 20" d="M-1575.946,677.086c2.958,1.6,3.6,4.3,3.525,7.323a27.81,27.81,0,0,1-3.452,11.8,61.956,61.956,0,0,1-15.417,19.781c-.234.2-.463.4-.695.6l.077.252c1.285-.273,2.594-.464,3.85-.834a33.489,33.489,0,0,0,8.02-3.637c.372-.228.767-.422,1.157-.619a.974.974,0,0,1,.3-.037,1.087,1.087,0,0,1-.414,1.526,19.81,19.81,0,0,1-2.916,1.774,28.418,28.418,0,0,1-11.565,3.018,2.068,2.068,0,0,0-1.028.453,32.722,32.722,0,0,1-8.018,4.29,17.355,17.355,0,0,1-8.971.931,7.337,7.337,0,0,1-6.152-5.782,17.951,17.951,0,0,1,.3-9.939,63.206,63.206,0,0,1,19.764-30.471,34.892,34.892,0,0,1,10.214-6.28,17.75,17.75,0,0,1,8.289-1.293c3.138.349,4.673,2.833,3.644,5.845C-1575.567,676.2-1575.75,676.6-1575.946,677.086Zm-3.375.859-.071-.237c-.613-.057-1.227-.166-1.84-.161a16.265,16.265,0,0,0-8.694,2.615,31.873,31.873,0,0,0-11.895,13.695,25.038,25.038,0,0,0-2.674,13.194c.5,5.436,3.91,9.019,9.33,9.635a2,2,0,0,0,1.907-.588c.37-.414.835-.743,1.247-1.121a58.061,58.061,0,0,0,12.031-16.117,40.324,40.324,0,0,0,4.192-11.149,13.949,13.949,0,0,0,.053-6.36,4.646,4.646,0,0,0-1.374-2.4c-1.732,1.3-3.434,2.55-5.095,3.849-1.223.958-2.43,1.944-3.569,3a2.542,2.542,0,0,0-.824,2.313c.039.273-.26.593-.4.892a3.83,3.83,0,0,1-.816-.676,1.767,1.767,0,0,1-.163-.846,5.46,5.46,0,0,1,1.491-4.134,24.715,24.715,0,0,1,5.185-4C-1580.629,678.9-1579.982,678.415-1579.322,677.945Zm-16.379,40.084c-1.365-.268-2.558-.463-3.73-.74a11.233,11.233,0,0,1-8.739-10.782,22.852,22.852,0,0,1,2.067-9.911c3.3-7.488,8.231-13.561,15.531-17.523a21.219,21.219,0,0,1,11.473-2.818c1.246.07,1.429-.037,1.776-1.254a4.955,4.955,0,0,0,.177-1,2.092,2.092,0,0,0-1.571-2.471,8.2,8.2,0,0,0-2.566-.4,16.954,16.954,0,0,0-7.993,2.28,41.077,41.077,0,0,0-11.5,9.463,64.654,64.654,0,0,0-12.423,22.12,23.342,23.342,0,0,0-1.266,9.9c.508,4.814,3.227,7.3,8.075,7.219a16.959,16.959,0,0,0,8.08-2.474C-1597.453,719.159-1596.638,718.611-1595.7,718.029Z" transform="translate(1916.204 -652.15)" fill="#4b413b"/>
    <path id="Path_21" data-name="Path 21" d="M-1337.788,941.272c-.32.243-.645.48-.958.732a30.009,30.009,0,0,1-7.039,4.652,9.129,9.129,0,0,1-3.022.658,1.434,1.434,0,0,1-1.618-1.825,8.429,8.429,0,0,1,.831-2.763,29.445,29.445,0,0,1,7.016-8.6,2.878,2.878,0,0,1,2.188-.84c.716.073.894.395.429.939-.694.813-1.5,1.529-2.174,2.359q-2.4,2.975-4.708,6.031a4.721,4.721,0,0,0-.694,1.666c-.2.777.113,1.236.9,1.217a3.764,3.764,0,0,0,1.926-.5,66.656,66.656,0,0,0,5.727-4.142c2.347-1.965,4.529-4.125,6.809-6.171a6.332,6.332,0,0,1,1.627-1.059,1.1,1.1,0,0,1,.983.2,1,1,0,0,1,0,.929,13.436,13.436,0,0,1-1.327,1.82,28.723,28.723,0,0,0-4.887,7.131,12.3,12.3,0,0,0-.694,2.661c-.125.7.188.982.917.935a7.561,7.561,0,0,0,4.257-1.9c1.882-1.509,3.482-3.255,3.825-5.739a15.965,15.965,0,0,0-.213-3.165,1.651,1.651,0,0,1,.056-.911c.217-.331.586-.733.924-.765a1.326,1.326,0,0,1,1.029.582,4.782,4.782,0,0,1,.234,4.3,14.257,14.257,0,0,1-10.713,9.15,5.173,5.173,0,0,1-1.528.039,1.878,1.878,0,0,1-1.7-2.163,12.145,12.145,0,0,1,.8-2.548c.248-.656.612-1.269.88-1.919a4.034,4.034,0,0,0,.156-.876Z" transform="translate(1687.597 -877.06)" fill="#4b413b"/>
  </g>
</svg>
