<svg xmlns="http://www.w3.org/2000/svg" width="20.803" height="20.808" viewBox="0 0 20.803 20.808">
  <g id="Layer_79" data-name="Layer 79" transform="translate(-1280.201 -53.279)">
    <g id="Group_658" data-name="Group 658">
      <g id="Group_655" data-name="Group 655">
        <g id="Group_654" data-name="Group 654">
          <path id="Path_47" data-name="Path 47" d="M1296.426,72.972h-11.645a3.468,3.468,0,0,1-3.465-3.465V57.859a3.469,3.469,0,0,1,3.465-3.465h11.645a3.468,3.468,0,0,1,3.463,3.465V69.507A3.467,3.467,0,0,1,1296.426,72.972Z" fill="#d61027" stroke="#d61027" stroke-miterlimit="10" stroke-width="2.23"/>
        </g>
      </g>
      <g id="Group_657" data-name="Group 657">
        <g id="Group_656" data-name="Group 656">
          <path id="Path_48" data-name="Path 48" d="M1293.4,60.141h-.909a.81.81,0,0,0-.809.81v.618h1.718V63.4h-1.718v5.658h-2.414V63.4h-1.554V61.569h1.554v-1.1a2.161,2.161,0,0,1,2.163-2.165h1.969Z" fill="#fff"/>
        </g>
      </g>
    </g>
  </g>
</svg>
