<svg xmlns="http://www.w3.org/2000/svg" width="268.917" height="83.649" viewBox="0 0 268.917 83.649">
  <g id="Group_55" data-name="Group 55" transform="translate(-298 -17.707)">
    <path id="Path_20" data-name="Path 20" d="M-1552.943,681.021c4.568,2.47,5.567,6.635,5.443,11.31-.172,6.538-2.443,12.492-5.332,18.224A95.68,95.68,0,0,1-1576.64,741.1c-.361.3-.715.617-1.073.926l.12.389c1.984-.421,4.006-.717,5.946-1.289a51.719,51.719,0,0,0,12.385-5.616c.575-.352,1.184-.651,1.787-.956a1.5,1.5,0,0,1,.468-.057,1.678,1.678,0,0,1-.639,2.356,30.591,30.591,0,0,1-4.5,2.74c-5.661,2.628-11.521,4.56-17.861,4.661a3.192,3.192,0,0,0-1.587.7,50.534,50.534,0,0,1-12.383,6.626,26.8,26.8,0,0,1-13.854,1.438c-5.089-.938-8.2-4-9.5-8.929a27.722,27.722,0,0,1,.47-15.349c5.664-18.582,15.642-34.433,30.523-47.057a53.888,53.888,0,0,1,15.775-9.7,27.412,27.412,0,0,1,12.8-2c4.845.538,7.216,4.374,5.628,9.027C-1552.358,679.654-1552.64,680.269-1552.943,681.021Zm-5.213,1.327-.109-.366c-.947-.087-1.9-.256-2.842-.248a25.12,25.12,0,0,0-13.427,4.039,49.221,49.221,0,0,0-18.369,21.149c-3.045,6.451-4.8,13.137-4.129,20.376.775,8.395,6.038,13.929,14.408,14.88a3.083,3.083,0,0,0,2.946-.908c.572-.64,1.29-1.147,1.926-1.732a89.667,89.667,0,0,0,18.58-24.89,62.272,62.272,0,0,0,6.473-17.217,21.541,21.541,0,0,0,.081-9.822,7.174,7.174,0,0,0-2.122-3.71c-2.674,2.014-5.3,3.937-7.868,5.944-1.89,1.479-3.753,3-5.512,4.632a3.926,3.926,0,0,0-1.273,3.573c.06.421-.4.916-.625,1.377a5.922,5.922,0,0,1-1.26-1.044,2.732,2.732,0,0,1-.252-1.306,8.432,8.432,0,0,1,2.3-6.384c2.273-2.575,5.188-4.31,8.008-6.174C-1560.176,683.829-1559.176,683.073-1558.156,682.348Zm-25.295,61.9c-2.108-.415-3.95-.715-5.761-1.143a17.348,17.348,0,0,1-13.5-16.651,35.286,35.286,0,0,1,3.193-15.306c5.1-11.564,12.712-20.942,23.986-27.061a32.769,32.769,0,0,1,17.719-4.353c1.925.108,2.208-.057,2.743-1.936a7.665,7.665,0,0,0,.273-1.547c.141-1.99-.52-3.194-2.426-3.817a12.669,12.669,0,0,0-3.963-.616,26.181,26.181,0,0,0-12.344,3.521,63.435,63.435,0,0,0-17.753,14.614,99.853,99.853,0,0,0-19.185,34.161,36.047,36.047,0,0,0-1.956,15.292c.784,7.434,4.983,11.274,12.47,11.148a26.191,26.191,0,0,0,12.478-3.82C-1586.158,746-1584.9,745.15-1583.451,744.251Z" transform="translate(1916.204 -652.15)" fill="#4b413b"/>
    <path id="Path_21" data-name="Path 21" d="M-1330.894,945.624c-.494.376-1,.741-1.48,1.13-3.4,2.732-6.809,5.486-10.871,7.184a14.1,14.1,0,0,1-4.668,1.016c-1.806.088-2.752-1.012-2.5-2.819a13.019,13.019,0,0,1,1.283-4.266,45.476,45.476,0,0,1,10.835-13.274,4.444,4.444,0,0,1,3.38-1.3c1.105.113,1.38.609.663,1.45-1.071,1.255-2.322,2.362-3.358,3.644q-3.713,4.595-7.27,9.314a7.286,7.286,0,0,0-1.073,2.573c-.3,1.2.174,1.909,1.4,1.879a5.814,5.814,0,0,0,2.974-.776,102.923,102.923,0,0,0,8.845-6.4c3.624-3.034,6.995-6.37,10.516-9.531a9.783,9.783,0,0,1,2.512-1.636,1.692,1.692,0,0,1,1.519.315,1.542,1.542,0,0,1,0,1.435,20.753,20.753,0,0,1-2.049,2.81c-2.9,3.415-5.772,6.851-7.548,11.012a18.985,18.985,0,0,0-1.072,4.109c-.193,1.082.291,1.516,1.415,1.444a11.676,11.676,0,0,0,6.574-2.941c2.907-2.33,5.378-5.027,5.907-8.863a24.655,24.655,0,0,0-.329-4.888,2.549,2.549,0,0,1,.086-1.407c.335-.511.906-1.132,1.427-1.182a2.048,2.048,0,0,1,1.59.9,7.385,7.385,0,0,1,.361,6.642c-3.083,7.492-8.453,12.443-16.545,14.13a7.993,7.993,0,0,1-2.36.061,2.9,2.9,0,0,1-2.621-3.34,18.768,18.768,0,0,1,1.233-3.934c.384-1.014.945-1.959,1.36-2.963a6.23,6.23,0,0,0,.241-1.353Z" transform="translate(1708.904 -856.096)" fill="#4b413b"/>
    <g id="Group_6" data-name="Group 6" transform="translate(-19 202.051)">
      <path id="Path_28" data-name="Path 28" d="M-1540.878,1119.414c1.249-3.59,2.372-6.787,3.467-9.994.217-.637.389-1.125,1.254-1.135.9-.01,1.151.466,1.381,1.159,1.1,3.294,2.216,6.581,3.406,10.1.754-2.17,1.438-4.117,2.1-6.069.438-1.283.931-2.556,1.252-3.87.329-1.348,1.1-1.507,2.351-1.125-.943,2.851-1.866,5.657-2.8,8.46-.455,1.367-.976,2.713-1.376,4.1-.24.827-.527,1.269-1.533,1.258-.955-.01-1.2-.448-1.443-1.2-.947-2.9-1.951-5.783-2.939-8.67-.079-.23-.2-.447-.442-.978l-2.709,7.857c-.207.6-.448,1.193-.612,1.806-.207.775-.522,1.2-1.471,1.189a1.38,1.38,0,0,1-1.509-1.163c-1.277-3.907-2.593-7.8-3.889-11.7-.091-.274-.14-.561-.206-.836,1.586-.57,1.867-.447,2.35.993q1.374,4.1,2.746,8.2C-1541.352,1118.213-1541.177,1118.629-1540.878,1119.414Z" transform="translate(1990.599 -1231.495)" fill="#4b413b"/>
      <path id="Path_29" data-name="Path 29" d="M-1650.339,1122.255a1.992,1.992,0,0,1-2.386-.86c-2.028-2.614-4.129-5.171-6.2-7.748-.314-.391-.644-.769-1.189-1.418v10.026h-2.129V1120.1c0-3.436-.016-6.872.017-10.307a4.928,4.928,0,0,1,.4-1.331c.6.2,1.406.228,1.754.641,2.327,2.753,4.554,5.59,6.818,8.4.212.262.446.507.812.92a9.344,9.344,0,0,0,.138-1.048c.01-2.46,0-4.92.006-7.38,0-1.7.027-1.718,1.958-1.427Z" transform="translate(2161.148 -1252.305)" fill="#4b413b"/>
      <path id="Path_30" data-name="Path 30" d="M-1802.385,1112.635v9.6h-2v-13.638a1.71,1.71,0,0,1,2.285.687c2.2,2.809,4.453,5.57,6.681,8.354.2.256.364.547.544.822l.355-.193v-9.778h1.977v13.71a1.946,1.946,0,0,1-2.444-.83c-2.324-2.972-4.724-5.887-7.1-8.823Z" transform="translate(2267.019 -1252.285)" fill="#4b413b"/>
      <path id="Path_31" data-name="Path 31" d="M-1877.424,1115.026c.008-4.093,3.1-7.025,7.41-7.025a7.027,7.027,0,0,1,7.359,7.112,7.07,7.07,0,0,1-7.379,7.12A7.049,7.049,0,0,1-1877.424,1115.026Zm7.38-5.186a5.161,5.161,0,0,0-5.366,5.249,5.251,5.251,0,0,0,5.337,5.321,5.218,5.218,0,0,0,5.361-5.291A5.142,5.142,0,0,0-1870.044,1109.84Z" transform="translate(2321.424 -1251.99)" fill="#4b413b"/>
      <path id="Path_32" data-name="Path 32" d="M-1041,1108c4.295,0,7.366,2.937,7.38,7.06a7.021,7.021,0,0,1-7.426,7.17,7.164,7.164,0,0,1-7.388-7.151A7.128,7.128,0,0,1-1041,1108Zm5.319,7.091a5.082,5.082,0,0,0-5.326-5.256,5.24,5.24,0,0,0-5.374,5.28,5.305,5.305,0,0,0,5.4,5.29A5.156,5.156,0,0,0-1035.68,1115.087Z" transform="translate(1619.536 -1231.285)" fill="#4b413b"/>
      <path id="Path_33" data-name="Path 33" d="M-1383.914,1108.984c2.462,0,4.842-.17,7.184.05a4.317,4.317,0,0,1,3.9,3.641,4.59,4.59,0,0,1-2.453,5.222c-.1.062-.2.145-.376.283l3.075,4.425c-1.292.262-2.322.306-2.908-.965-.07-.151-.228-.265-.286-.418-1.123-2.947-3.475-2.974-6.168-2.512v3.934h-1.973Zm1.983,7.917a48.393,48.393,0,0,0,4.926-.336,2.577,2.577,0,0,0,2.194-2.848c.007-1.475-.67-2.621-2.038-2.839-1.651-.263-3.348-.233-5.082-.333Z" transform="translate(1869.425 -1231.974)" fill="#4b413b"/>
      <path id="Path_34" data-name="Path 34" d="M-1456.879,1115.012c.017-4.08,3.13-7.025,7.426-7.027a7.008,7.008,0,0,1,7.34,7.116,7.065,7.065,0,0,1-7.364,7.124A7.068,7.068,0,0,1-1456.879,1115.012Zm2.016.11a5.289,5.289,0,0,0,5.4,5.29,5.324,5.324,0,0,0,5.344-5.346,5.212,5.212,0,0,0-5.406-5.241A5.178,5.178,0,0,0-1454.863,1115.122Z" transform="translate(1923.774 -1231.276)" fill="#4b413b"/>
      <path id="Path_35" data-name="Path 35" d="M-1261.216,1122.325h-1.906v-6.009h-7.923v5.988h-1.981v-13.779l1.932-.091v5.917h7.929c0-1.379,0-2.8,0-4.219,0-1.841,0-1.841,1.949-1.573Z" transform="translate(1786.828 -1231.609)" fill="#4b413b"/>
      <path id="Path_36" data-name="Path 36" d="M-1593.793,1116.168v4.347h7.929v1.715h-9.945c-.037-.4-.106-.8-.106-1.2-.005-3.816.03-7.631-.016-11.446-.012-.964.311-1.24,1.244-1.224,2.832.049,5.665.018,8.558.018v1.824c-2.169,0-4.278.052-6.382-.022-1.042-.036-1.476.258-1.381,1.342.08.911.016,1.835.016,2.892h6.833c.284,1.735.283,1.744-1.239,1.752C-1590.094,1116.175-1591.907,1116.168-1593.793,1116.168Z" transform="translate(2111.748 -1252.257)" fill="#4b413b"/>
      <path id="Path_37" data-name="Path 37" d="M-1177.386,1121.953h-1.977v-13.982a68.931,68.931,0,0,1,7.5.458,4.373,4.373,0,0,1,3.684,4.779,4.61,4.61,0,0,1-4.243,4.48c-1.58.219-3.193.2-4.959.3Zm.112-11.908v6.13c1.628-.1,3.154-.076,4.642-.3a2.791,2.791,0,0,0,2.4-2.969,2.754,2.754,0,0,0-2.553-2.83C-1174.241,1109.937-1175.721,1110.045-1177.274,1110.045Z" transform="translate(1717.061 -1231.266)" fill="#4b413b"/>
      <path id="Path_38" data-name="Path 38" d="M-1329.319,1120.239l.578-1.3c1.128.424,2.167.879,3.246,1.193a6.506,6.506,0,0,0,2.009.194c1.615-.055,2.682-.811,2.8-1.887.119-1.133-.518-1.756-2.29-2.242-1.062-.292-2.132-.562-3.184-.888-1.845-.572-2.819-1.705-2.887-3.289a3.682,3.682,0,0,1,2.69-3.74,8.232,8.232,0,0,1,5.852.137c1.423.538,1.445.673.688,1.925-1.513-.238-2.948-.506-4.394-.667a2.158,2.158,0,0,0-1.46.3c-.545.44-1.237,1.1-1.254,1.68a2.406,2.406,0,0,0,1.173,1.7,13.238,13.238,0,0,0,2.773.879c.689.208,1.394.379,2.056.652a3.228,3.228,0,0,1,2.279,2.928,3.562,3.562,0,0,1-1.89,3.483C-1322.892,1122.671-1327.232,1122.181-1329.319,1120.239Z" transform="translate(1828.759 -1231.143)" fill="#4b413b"/>
      <path id="Path_39" data-name="Path 39" d="M-1094.988,1118.612l.906,1.351c-.97,1.68-4.02,2.552-7.074,1.864a6.963,6.963,0,0,1-5.323-6.241,7.016,7.016,0,0,1,4.73-7.328c2.8-1.027,6.255-.245,7.912,1.916l-1.142,1.048c-3.551-2.111-6.493-1.919-8.388.485a5.437,5.437,0,0,0,.336,6.9C-1101.026,1120.692-1098.033,1120.749-1094.988,1118.612Z" transform="translate(1662.786 -1231.145)" fill="#4b413b"/>
      <path id="Path_40" data-name="Path 40" d="M-1738.635,1122.237c0-1.811,0-3.54,0-5.27,0-2.544.021-5.088-.01-7.631-.009-.741.3-.948.986-.946s1.111.109,1.1.962c-.037,3.137-.015,6.275-.016,9.412v1.762h7.387v1.71Z" transform="translate(2218.051 -1252.28)" fill="#4b413b"/>
      <path id="Path_41" data-name="Path 41" d="M-1687.323,1122.242h-1.928a7.673,7.673,0,0,1-.127-.983c-.008-3.9.012-7.792-.016-11.687-.006-.812.131-1.248,1.095-1.241s.987.5.984,1.213C-1687.331,1113.729-1687.323,1117.914-1687.323,1122.242Z" transform="translate(2181.366 -1252.235)" fill="#4b413b"/>
      <path id="Path_42" data-name="Path 42" d="M-1205,1122.263h-1.8a10.922,10.922,0,0,1-.109-1.093c-.008-3.86,0-7.72-.008-11.58,0-.668-.048-1.241.942-1.255s1.091.462,1.086,1.255c-.022,3.86,0,7.72-.007,11.581C-1204.9,1121.5-1204.959,1121.834-1205,1122.263Z" transform="translate(1737.587 -1231.538)" fill="#4b413b"/>
    </g>
  </g>
</svg>
