<svg xmlns="http://www.w3.org/2000/svg" xmlns:xlink="http://www.w3.org/1999/xlink" width="679" height="653.792" viewBox="0 0 679 653.792">
  <defs>
    <style>
      .cls-1 {
        fill: #4b413b;
        opacity: 0.084;
      }

      .cls-2 {
        fill: url(#pattern);
      }

      .cls-3 {
        fill: url(#pattern-2);
      }

      .cls-4 {
        fill: url(#pattern-3);
      }

      .cls-5 {
        filter: url(#shutterstock_475718455);
      }
    </style>
    <pattern id="pattern" width="1" height="1" viewBox="217.231 0 248 321">
      <image preserveAspectRatio="xMidYMid slice" width="481.259" height="321" xlink:href="Group%2055-image.jpg"/>
    </pattern>
    <pattern id="pattern-2" preserveAspectRatio="xMidYMid slice" width="100%" height="100%" viewBox="0 0 930 930">
      <image width="930" height="930" xlink:href="Group%2055-image2.png"/>
    </pattern>
    <pattern id="pattern-3" width="1" height="1" viewBox="46.468 9.046 242.324 262.908">
      <image preserveAspectRatio="xMidYMid slice" width="423.193" height="281" xlink:href="Group%2055-image3.jpg"/>
    </pattern>
    <filter id="shutterstock_475718455" x="240" y="231.38" width="337" height="359" filterUnits="userSpaceOnUse">
      <feOffset dy="23" input="SourceAlpha"/>
      <feGaussianBlur stdDeviation="13" result="blur"/>
      <feFlood flood-opacity="0.294"/>
      <feComposite operator="in" in2="blur"/>
      <feComposite in="SourceGraphic"/>
    </filter>
  </defs>
  <g id="Group_55" data-name="Group 55" transform="translate(-891 -1188.62)">
    <path id="Path_1" data-name="Path 1" class="cls-1" d="M-1129.2,753.509c34.225,18.506,41.711,49.717,40.789,84.747-1.291,48.992-18.309,93.6-39.952,136.553-44.33,87.97-102.783,165.154-178.4,228.9-2.707,2.28-5.359,4.624-8.038,6.938l.9,2.913c14.869-3.153,30.018-5.37,44.553-9.655,32.836-9.677,63.61-24.211,92.8-42.085,4.31-2.641,8.875-4.879,13.394-7.161.91-.46,2.145-.282,3.5-.426,4.267,7.652.814,13.754-4.786,17.654-10.8,7.515-21.861,15.018-33.744,20.533-42.42,19.693-86.329,34.171-133.834,34.924-4.011.064-8.381,2.775-11.891,5.238-28.933,20.3-59.267,38-92.788,49.647-33.709,11.716-68.147,17.351-103.813,10.775-38.135-7.031-61.451-29.977-71.194-66.905-10.186-38.608-7.943-77.4,3.522-115.015,42.442-139.236,117.211-258.013,228.715-352.608,35.551-30.161,74.131-56.073,118.2-72.674,30.9-11.64,62.662-18.65,95.919-14.957,36.308,4.033,54.072,32.778,42.168,67.643C-1124.809,743.265-1126.925,747.875-1129.2,753.509Zm-39.06,9.943-.815-2.739c-7.1-.655-14.2-1.915-21.293-1.861-36.451.274-70.03,10.929-100.611,30.264-61.693,39.009-106.64,92.791-137.642,158.473-22.815,48.338-35.954,98.439-30.943,152.682,5.811,62.9,45.247,104.373,107.961,111.5,8.594.978,15.893.112,22.075-6.8,4.287-4.793,9.665-8.6,14.434-12.976,58.169-53.41,102.786-116.947,139.221-186.506,21.466-40.984,39.816-83.233,48.507-129.013,4.642-24.448,7.3-49.02.609-73.6-3-11.009-7.806-20.98-15.9-27.8-20.036,15.089-39.742,29.5-58.957,44.541-14.158,11.083-28.121,22.5-41.3,34.705a29.419,29.419,0,0,0-9.54,26.771c.448,3.155-3.013,6.864-4.681,10.32-3.224-2.551-7.18-4.593-9.44-7.82-1.746-2.49-1.645-6.447-1.885-9.787-1.326-18.463,5.143-34.13,17.248-47.839,17.031-19.292,38.872-32.293,60.006-46.26C-1183.391,774.548-1175.9,768.887-1168.259,763.452ZM-1357.8,1227.3c-15.8-3.106-29.6-5.356-43.168-8.567-59.164-14-99.557-64.219-101.127-124.769-1.042-40.161,7.84-78.257,23.922-114.693,38.243-86.648,95.253-156.925,179.727-202.774,41.375-22.457,85.2-35.291,132.772-32.615,14.422.81,16.542-.426,20.55-14.507a57.493,57.493,0,0,0,2.045-11.59c1.059-14.911-3.9-23.934-18.18-28.6a94.956,94.956,0,0,0-29.7-4.617c-33.138.247-63.724,10.785-92.5,26.387-51.4,27.865-95.07,65.508-133.029,109.5-65.171,75.538-112.394,161.449-143.758,255.976-12.309,37.1-18.824,75.038-14.653,114.583,5.877,55.7,37.343,84.474,93.443,83.532,33.914-.568,64.454-12.294,93.5-28.627C-1378.078,1240.377-1368.65,1234.04-1357.8,1227.3Z" transform="translate(2509.204 518.763)"/>
    <path id="Path_2" data-name="Path 2" class="cls-1" d="M-1203.9,1025.79c-3.7,2.817-7.466,5.554-11.091,8.466-25.492,20.474-51.018,41.11-81.46,53.833a105.665,105.665,0,0,1-34.976,7.611c-13.529.661-20.621-7.579-18.723-21.122,1.531-10.927,4.456-22.3,9.611-31.968,20.471-38.375,48.043-71.29,81.187-99.462,7.139-6.068,15.208-10.763,25.324-9.726,8.281.848,10.34,4.566,4.965,10.866-8.027,9.408-17.4,17.7-25.16,27.3q-27.826,34.429-54.477,69.79c-4.067,5.421-6.346,12.572-8.038,19.28-2.269,8.988,1.3,14.307,10.464,14.081,7.54-.186,16.211-1.742,22.283-5.815,22.641-15.182,45.414-30.466,66.276-47.932,27.158-22.738,52.413-47.732,78.8-71.414a73.289,73.289,0,0,1,18.824-12.257c3.023-1.348,8.963,0,11.379,2.363,1.859,1.819,1.634,7.941-.031,10.751a155.544,155.544,0,0,1-15.351,21.056c-21.7,25.587-43.254,51.334-56.555,82.517-4.123,9.665-6.17,20.364-8.031,30.792-1.447,8.105,2.177,11.36,10.6,10.822,19.115-1.22,34.786-10.435,49.261-22.037,21.784-17.459,40.3-37.668,44.266-66.415,1.636-11.868-1.629-24.391-2.462-36.629-.242-3.554-1.037-7.975.646-10.545,2.507-3.83,6.787-8.481,10.69-8.855,3.823-.367,9.861,3.181,11.912,6.74,9.149,15.886,9.369,33.568,2.7,49.767-23.1,56.14-63.337,93.236-123.973,105.879-5.691,1.186-11.844,1.015-17.684.453a21.732,21.732,0,0,1-19.636-25.027c1.409-10.07,5.586-19.841,9.239-29.479,2.878-7.6,7.079-14.683,10.188-22.2,1.282-3.1,1.243-6.744,1.805-10.139Z" transform="translate(2626.432 727.994)"/>
    <rect id="shutterstock_342646616" class="cls-2" width="248" height="321" rx="12" transform="translate(981 1255)"/>
    <rect id="a148635688ec39dc3a1ba2f8c36b4590" class="cls-3" width="154" height="154" rx="12" transform="translate(1277 1234)"/>
    <g class="cls-5" transform="matrix(1, 0, 0, 1, 891, 1188.62)">
      <rect id="shutterstock_475718455-2" data-name="shutterstock_475718455" class="cls-4" width="259" height="281" rx="12" transform="translate(279 247.38)"/>
    </g>
  </g>
</svg>
