<svg width="153" height="53" viewBox="0 0 153 53" fill="none" xmlns="http://www.w3.org/2000/svg">
<path d="M24.1556 21.4877C25.3827 23.0078 26.0414 24.9044 26.0192 26.8537C26.0582 28.5485 25.5959 30.2173 24.6897 31.653C23.7298 33.0833 22.3761 34.2084 20.7904 34.8939C18.8922 35.7172 16.8367 36.1201 14.7664 36.0745H0V2.04263H14.1076C16.1665 1.99443 18.2127 2.37653 20.1138 3.16423C21.6686 3.8092 22.9979 4.89531 23.936 6.28702C24.8039 7.63763 25.2538 9.21204 25.2298 10.8148C25.2944 12.6048 24.7322 14.3616 23.6392 15.7853C22.5515 17.1376 21.0722 18.1247 19.4016 18.6129C21.2906 18.9498 22.9855 19.9747 24.1556 21.4877ZM6.88464 16.0804H13.152C14.5009 16.167 15.8373 15.7782 16.9267 14.9824C17.3747 14.595 17.7271 14.1103 17.9566 13.5657C18.1862 13.0211 18.2866 12.4313 18.2502 11.8419C18.2845 11.2484 18.1833 10.6549 17.954 10.1059C17.7248 9.55691 17.3736 9.06665 16.9267 8.67191C15.8443 7.86021 14.5047 7.46218 13.152 7.5503H6.88464V16.0804ZM17.6864 29.339C18.1552 28.9262 18.5241 28.4135 18.7656 27.839C19.0071 27.2645 19.115 26.6432 19.0811 26.0214C19.109 25.3718 18.9871 24.7245 18.7248 24.1291C18.4625 23.5336 18.0667 23.0057 17.5677 22.5857C16.438 21.7094 15.0277 21.2691 13.5972 21.3461H6.88464V30.5078H13.7693C15.1656 30.5916 16.5461 30.1771 17.6627 29.339H17.6864Z" fill="#0B2F5B"/>
<path d="M56.1452 9.0614V36.0626H49.2428V32.6506C48.3381 33.8378 47.1512 34.7831 45.7886 35.4014C44.3399 36.0749 42.7583 36.4177 41.1592 36.405C39.1958 36.4431 37.255 35.9819 35.521 35.065C33.8756 34.1544 32.5376 32.7805 31.6751 31.1157C30.7 29.1905 30.2208 27.0546 30.2803 24.8997V9.0614H37.1531V23.9256C37.1531 26.0685 37.6873 27.7214 38.7674 28.8725C39.974 29.9827 41.5572 30.5994 43.2009 30.5994C44.8446 30.5994 46.4278 29.9827 47.6344 28.8725C48.7145 27.6919 49.2546 26.0685 49.2546 23.9256V9.0614H56.1452Z" fill="#0B2F5B"/>
<path d="M61.807 15.2007C62.8001 13.2012 64.3423 11.5223 66.255 10.3585C68.1677 9.19468 70.3727 8.5935 72.6147 8.62456C74.3618 8.62148 76.0867 9.01307 77.6595 9.76978C79.1665 10.4562 80.4795 11.5026 81.4816 12.8158V0H88.4434V36.0626H81.4816V32.0661C80.5984 33.4303 79.3704 34.5397 77.9206 35.2834C76.2677 36.1194 74.433 36.5371 72.5791 36.4994C70.3612 36.5148 68.1849 35.9004 66.3057 34.7285C64.3789 33.524 62.8257 31.8116 61.8189 29.7816C60.6925 27.5006 60.1309 24.9847 60.1808 22.4439C60.1316 19.9348 60.6893 17.4507 61.807 15.2007V15.2007ZM80.5498 18.2999C79.9435 17.1613 79.0285 16.2144 77.9087 15.5667C76.8262 14.9445 75.598 14.6167 74.3477 14.6163C73.0867 14.6027 71.8462 14.9342 70.7618 15.5744C69.6774 16.2147 68.7909 17.1392 68.199 18.2468C67.5008 19.5409 67.1531 20.9934 67.1901 22.4616C67.1562 23.9465 67.5034 25.4154 68.199 26.7297C68.8075 27.8871 69.7229 28.8568 70.846 29.5337C71.9009 30.1726 73.1126 30.5096 74.3477 30.5077C75.598 30.5073 76.8262 30.1795 77.9087 29.5573C79.0285 28.9096 79.9435 27.9627 80.5498 26.8241C81.2344 25.509 81.5714 24.0423 81.5291 22.562C81.5709 21.0817 81.2339 19.6152 80.5498 18.2999V18.2999Z" fill="#0B2F5B"/>
<path d="M94.0525 15.2007C95.0417 13.1994 96.5822 11.5188 98.4945 10.3546C100.407 9.19032 102.612 8.59037 104.854 8.62456C106.603 8.62161 108.33 9.01317 109.905 9.76978C111.407 10.4591 112.715 11.5052 113.715 12.8158V0H120.671V36.0626H113.715V32.0661C112.831 33.4297 111.604 34.539 110.154 35.2834C108.502 36.1214 106.667 36.5411 104.813 36.5053C102.595 36.52 100.419 35.9057 98.5393 34.7344C96.6129 33.5312 95.0613 31.8183 94.0584 29.7875C92.9265 27.5082 92.3626 24.9915 92.4144 22.4498C92.3651 19.9375 92.9271 17.4505 94.0525 15.2007ZM112.795 18.2999C112.188 17.1617 111.274 16.2149 110.154 15.5667C109.072 14.9445 107.843 14.6167 106.593 14.6163C105.333 14.6047 104.093 14.937 103.009 15.577C101.925 16.2171 101.038 17.1405 100.445 18.2468C99.7483 19.5414 99.4027 20.9939 99.4415 22.4616C99.4058 23.946 99.751 25.4149 100.445 26.7296C101.055 27.8859 101.97 28.8552 103.092 29.5337C104.146 30.1726 105.358 30.5096 106.593 30.5077C107.843 30.5073 109.072 30.1795 110.154 29.5573C111.276 28.9099 112.193 27.9631 112.801 26.8241C113.486 25.509 113.823 24.0423 113.78 22.562C113.82 21.0812 113.481 19.6146 112.795 18.2999V18.2999Z" fill="#0B2F5B"/>
<path d="M152.382 9.0614L133.704 52.8217H126.582L134.161 35.3778L123.276 9.0614H130.992L137.995 27.9516L145.117 9.09092L152.382 9.0614Z" fill="#0B2F5B"/>
<path d="M45.7899 52.3495C45.1665 52.5989 44.499 52.7212 43.8271 52.709C43.1552 52.6969 42.4926 52.5505 41.8787 52.2787C41.2781 52.0003 40.7439 51.5978 40.3119 51.098C39.8809 50.6087 39.5484 50.0416 39.3326 49.4274C39.1112 48.7975 38.9989 48.1348 39.0002 47.4676C38.9943 46.7376 39.1004 46.011 39.3148 45.3129C39.5082 44.6685 39.8245 44.0673 40.2466 43.5419C40.667 43.0255 41.1957 42.6065 41.7956 42.3141C42.4717 41.9945 43.2136 41.8368 43.9619 41.8536C44.5022 41.8504 45.0408 41.9158 45.5644 42.0484C46.0427 42.1658 46.4967 42.3656 46.9057 42.6388C47.3067 42.9248 47.6458 43.2882 47.9028 43.7072C48.1891 44.1867 48.3748 44.7188 48.4488 45.2716H47.06C47.0065 44.9067 46.8771 44.5569 46.6802 44.2444C46.4968 43.9847 46.2651 43.7622 45.9976 43.5892C45.7128 43.3999 45.3978 43.2601 45.0658 43.1759C44.7059 43.0797 44.3346 43.032 43.9619 43.0343C43.426 43.0141 42.8938 43.1297 42.4152 43.3703C41.9366 43.6109 41.5273 43.9686 41.2259 44.4097C40.932 44.8368 40.7169 45.3125 40.5908 45.8147C40.455 46.3452 40.3872 46.8906 40.389 47.438C40.3868 47.9662 40.4649 48.4916 40.6205 48.9965C40.7639 49.4766 40.9975 49.9253 41.309 50.3188C41.6209 50.7208 42.0236 51.0441 42.4845 51.2625C42.9454 51.481 43.4515 51.5884 43.9619 51.5762C44.4571 51.5849 44.9492 51.4967 45.4101 51.3164C45.8114 51.1537 46.1734 50.9082 46.4724 50.5963C46.7631 50.2772 46.9835 49.9012 47.1194 49.4924C47.2672 49.0657 47.3316 48.6149 47.3093 48.1641H43.9797V46.9835H48.5616V52.444H47.6891L47.3212 51.1512C46.9372 51.6887 46.4055 52.1048 45.7899 52.3495Z" fill="#0B2F5B"/>
<path d="M69.2446 51.7121C68.3999 52.4235 67.3105 52.7812 66.2059 52.7097C65.0759 52.7771 63.9593 52.4376 63.0603 51.7534C62.3046 51.1237 61.9268 50.1143 61.9268 48.7251V42.1017H63.3156V48.7251C63.2875 49.1095 63.3394 49.4956 63.468 49.8592C63.5967 50.2229 63.7994 50.5562 64.0634 50.8384C64.3546 51.0938 64.694 51.2891 65.0619 51.4127C65.4297 51.5364 65.8186 51.5859 66.2059 51.5586C66.5751 51.5856 66.9459 51.5355 67.2944 51.4115C67.643 51.2875 67.9616 51.0922 68.2298 50.8384C68.7293 50.2509 68.9785 49.4926 68.9241 48.7251V42.1017H70.3129V48.7251C70.3553 49.2696 70.2821 49.8169 70.0981 50.3315C69.914 50.8461 69.6233 51.3165 69.2446 51.7121Z" fill="#0B2F5B"/>
<path d="M88.8307 42.1015C89.6715 42.0505 90.5017 42.309 91.1632 42.8276C91.4426 43.0765 91.6627 43.3842 91.8075 43.7283C91.9522 44.0725 92.018 44.4444 92 44.817C92.0133 45.3985 91.8655 45.9723 91.5727 46.4758C91.257 46.9674 90.7608 47.3169 90.1899 47.4498V47.4498C90.455 47.4926 90.708 47.5913 90.9317 47.7391C91.1131 47.8689 91.2664 48.0335 91.3828 48.2231C91.4982 48.4196 91.5823 48.6327 91.6321 48.8548C91.6861 49.0945 91.7277 49.3369 91.7567 49.5809C91.7567 49.8347 91.7864 50.0945 91.7983 50.3542C91.8101 50.6139 91.8339 50.8737 91.8695 51.1216C91.9065 51.366 91.9641 51.6069 92.0416 51.8418C92.1083 52.0588 92.2195 52.2598 92.368 52.4321H90.819C90.7144 52.3073 90.6466 52.1561 90.6231 51.9953C90.5858 51.8005 90.5639 51.6031 90.5578 51.405C90.5578 51.1747 90.5578 50.9327 90.5578 50.673C90.5464 50.4134 90.5167 50.155 90.4688 49.8997C90.4331 49.657 90.3835 49.4166 90.3204 49.1795C90.2691 48.9668 90.1764 48.7663 90.0474 48.5891C89.9134 48.4185 89.7432 48.2794 89.5489 48.1818C89.2907 48.0714 89.0106 48.021 88.7298 48.0342H85.3409V52.4616H83.9521V42.1015H88.8307ZM89.1275 46.8241C89.3987 46.7831 89.659 46.6888 89.8931 46.5466C90.1161 46.3987 90.2962 46.1952 90.4154 45.9563C90.5621 45.6721 90.6316 45.3546 90.6172 45.0354C90.6363 44.5707 90.4795 44.1158 90.178 43.7603C89.9922 43.5798 89.769 43.4418 89.524 43.3562C89.2789 43.2705 89.018 43.2392 88.7595 43.2645H85.3113V46.8831H88.2076C88.5159 46.885 88.8238 46.8593 89.1275 46.8064V46.8241Z" fill="#0B2F5B"/>
<path d="M112.583 51.7121C111.737 52.4219 110.648 52.7793 109.544 52.7097C108.414 52.7771 107.297 52.4376 106.398 51.7534C105.646 51.1237 105.269 50.1143 105.265 48.7251V42.1017H106.653V48.7251C106.626 49.109 106.677 49.4946 106.805 49.858C106.932 50.2215 107.133 50.5551 107.395 50.8384C107.987 51.3518 108.76 51.6108 109.544 51.5586C109.913 51.5849 110.284 51.5345 110.632 51.4105C110.98 51.2865 111.299 51.0916 111.568 50.8384C112.067 50.2509 112.316 49.4926 112.262 48.7251V42.1017H113.645V48.7251C113.688 49.2692 113.616 49.8163 113.433 50.3308C113.25 50.8454 112.96 51.316 112.583 51.7121V51.7121Z" fill="#0B2F5B"/>
</svg>
